#!OML:ASF H:\Terrain\Patient Classification 1\Takeo\Monday\TakeoMonday.ASF
:FULLY-SPECIFIED
:DEGREES
1397
root 8.93921 16.3266 -1.90624 20.2156 23.5298 5.17608
lowerback 31.34 -1.77794 11.6226
upperback 11.5393 1.47688 1.01425
thorax -3.18568 1.13521 -5.51621
lowerneck -17.259 -7.95212 -5.9718
upperneck 9.95466 -10.2066 6.27488
head 6.46172 -4.67669 1.85295
rclavicle -3.18055e-015 3.33958e-014
rhumerus 20.7212 23.0186 -46.6941
rradius 61.4487
rwrist 2.30915
rhand -36.8753 44.0214
rfingers 7.12502
rthumb -9.95435 14.2768
lclavicle -3.18055e-015 3.33958e-014
lhumerus -21.9571 -9.42558 91.5945
lradius 65.3731
lwrist 33.2054
lhand -29.2103 12.2466
lfingers 7.12502
lthumb -2.55482 42.211
rfemur -56.9344 -6.86504 10.5941
rtibia 55.4685
rfoot -13.6518 -18.4656
rtoes 1.73261
lfemur -49.3526 0.943664 -30.4106
ltibia 56.0441
lfoot -20.2303 9.61239
ltoes -8.38178
1398
root 8.92545 16.2538 -1.93717 21.0723 23.3402 5.50426
lowerback 31.7166 -1.78816 11.3335
upperback 11.5578 1.42522 0.936901
thorax -3.33257 1.09774 -5.43256
lowerneck -16.9106 -8.04021 -6.17041
upperneck 9.54405 -10.3592 6.83852
head 6.32653 -4.72766 2.06016
rclavicle -8.11041e-014 1.59028e-015
rhumerus 21.5486 23.1379 -46.3016
rradius 60.7719
rwrist 2.499
rhand -36.9207 44.0911
rfingers 7.12502
rthumb -9.99814 14.3486
lclavicle -8.11041e-014 1.59028e-015
lhumerus -22.0291 -9.28404 91.3067
lradius 65.9321
lwrist 33.3337
lhand -29.374 12.0232
lfingers 7.12502
lthumb -2.71287 41.9857
rfemur -58.6073 -6.87859 10.2267
rtibia 56.6204
rfoot -13.769 -18.5052
rtoes 6.88106
lfemur -50.8413 0.901859 -30.8829
ltibia 57.0773
lfoot -20.4319 9.69362
ltoes -8.34507
1399
root 8.91205 16.1796 -1.96663 22.0346 23.201 5.85176
lowerback 31.841 -1.74168 11.037
upperback 11.7219 1.40772 0.979712
thorax -3.22148 1.09331 -5.22592
lowerneck -16.7974 -7.92585 -5.86815
upperneck 8.87232 -10.1738 6.33309
head 6.03578 -4.68295 1.89103
rclavicle -9.06458e-014 5.725e-014
rhumerus 22.5824 22.9924 -45.6616
rradius 60.1048
rwrist 2.78397
rhand -36.9876 43.9473
rfingers 7.12502
rthumb -10.0627 14.2079
lclavicle -9.06458e-014 5.725e-014
lhumerus -21.7514 -9.08404 91.2523
lradius 66.2164
lwrist 33.3929
lhand -29.415 11.4726
lfingers 7.12502
lthumb -2.7525 41.4346
rfemur -60.3281 -7.01388 9.91695
rtibia 57.8321
rfoot -14.4429 -18.4595
rtoes 7.16738
lfemur -52.3935 0.858125 -31.3793
ltibia 58.0957
lfoot -20.7454 9.49036
ltoes -5.73005
1400
root 8.89238 16.0945 -1.9975 22.9228 23.1951 6.28043
lowerback 32.1798 -1.74295 10.8303
upperback 11.8955 1.39055 1.0525
thorax -3.17546 1.08892 -5.03319
lowerneck -17.1077 -7.73073 -5.54844
upperneck 8.39415 -9.82266 5.41432
head 5.84397 -4.57563 1.59307
rclavicle 2.38542e-014 -6.99722e-014
rhumerus 23.5487 22.6239 -45.0059
rradius 59.5202
rwrist 2.87461
rhand -37.2827 44.0617
rfingers 7.12502
rthumb -10.3474 14.3363
lclavicle 2.38542e-014 -6.99722e-014
lhumerus -21.3847 -9.11536 91.3001
lradius 66.579
lwrist 33.5024
lhand -29.5177 12.0353
lfingers 7.12502
lthumb -2.85164 41.996
rfemur -61.9035 -7.22607 9.59419
rtibia 59.0524
rfoot -14.8896 -18.5435
rtoes 9.96206
lfemur -53.8432 0.695736 -31.8744
ltibia 59.1175
lfoot -21.1228 9.12244
ltoes -3.51784
1401
root 8.87297 16.0046 -2.02756 23.5533 23.3476 6.52474
lowerback 32.6859 -1.94366 11.0133
upperback 12.1081 1.25734 1.00266
thorax -3.14158 1.04674 -5.13255
lowerneck -17.4107 -7.64894 -5.86423
upperneck 8.00604 -9.64961 5.71559
head 5.79127 -4.47959 1.75194
rclavicle 1.59028e-014 3.57812e-014
rhumerus 24.5208 22.115 -44.6329
rradius 58.9711
rwrist 2.92826
rhand -37.4185 44.3679
rfingers 7.12502
rthumb -10.4784 14.6491
lclavicle 1.59028e-014 3.57812e-014
lhumerus -20.9975 -9.21395 91.0304
lradius 66.9928
lwrist 33.6223
lhand -29.5745 12.806
lfingers 7.12502
lthumb -2.90651 42.7659
rfemur -63.2837 -7.41553 9.4485
rtibia 60.2387
rfoot -14.9976 -18.782
rtoes 14.0065
lfemur -55.1429 0.4837 -32.1331
ltibia 60.1453
lfoot -21.2079 9.05653
ltoes -4.03048
1402
root 8.86041 15.9293 -2.05153 23.9525 23.3612 6.73541
lowerback 33.151 -2.1123 11.1247
upperback 12.496 1.1305 0.947567
thorax -2.90264 1.02539 -5.19847
lowerneck -17.5264 -7.76591 -6.12892
upperneck 7.38382 -9.77712 6.20365
head 5.65915 -4.52122 1.93664
rclavicle -1.59028e-015 -1.82882e-014
rhumerus 25.5796 21.4878 -44.1833
rradius 58.4397
rwrist 3.38787
rhand -37.7924 44.3327
rfingers 7.12502
rthumb -10.839 14.6324
lclavicle -1.59028e-015 -1.82882e-014
lhumerus -20.4677 -9.22987 90.7391
lradius 67.1809
lwrist 33.6296
lhand -29.2475 12.211
lfingers 7.12502
lthumb -2.59076 42.1751
rfemur -64.367 -7.46297 9.18304
rtibia 61.3571
rfoot -15.0706 -18.9272
rtoes 12.9538
lfemur -56.0819 0.386106 -32.3996
ltibia 61.1102
lfoot -21.4542 9.1125
ltoes -5.02125
1403
root 8.84595 15.8674 -2.07106 24.4208 23.5556 6.91977
lowerback 33.6121 -2.24812 11.1661
upperback 12.7768 1.04715 1.12962
thorax -2.774 1.00347 -4.99253
lowerneck -17.7896 -7.91836 -6.08224
upperneck 6.93443 -9.9177 5.86319
head 5.54357 -4.61678 1.80631
rclavicle -4.77083e-015 5.32743e-014
rhumerus 26.7166 21.1079 -43.248
rradius 57.8683
rwrist 3.60399
rhand -38.0688 44.6273
rfingers 7.12502
rthumb -11.1056 14.9411
lclavicle -4.77083e-015 5.32743e-014
lhumerus -20.1314 -9.16066 90.8271
lradius 67.3939
lwrist 33.5853
lhand -29.0899 11.7904
lfingers 7.12502
lthumb -2.43854 41.7562
rfemur -65.4086 -7.72904 9.08559
rtibia 62.4238
rfoot -15.1768 -18.8781
rtoes 7.85391
lfemur -57.0499 0.0730381 -32.5323
ltibia 62.0187
lfoot -21.6059 9.38071
ltoes -6.04991
